<svg width="213" height="207" viewBox="0 0 213 207" fill="none" xmlns="http://www.w3.org/2000/svg">
<g filter="url(#filter0_d_2193_392)">
<path d="M185.557 5.45355C183.097 3.41826 179.366 2.30966 176.211 2.08621C153.851 0.502034 150.588 47.2397 154.015 57.6849C157.442 68.13 155.222 71.56 137.612 77.0246C120.002 82.4892 128.45 93.0112 130.597 99.1644C132.743 105.318 136.993 110.515 124.156 116.63C111.318 122.744 115.779 126.532 115.779 126.532C115.779 126.532 139.454 150.748 138.146 142.995C136.839 135.242 139.208 123.535 160.434 122.645C169.577 122.262 183.577 117.901 186.677 108.111C187.399 105.832 187.902 102.35 187.353 99.9906C186.591 96.7177 184.442 94.1385 183.25 91.058C180.47 83.8792 187.442 78.6219 191.454 73.8237C193.549 71.3187 195.642 68.7495 197.246 65.8934C200.577 59.9636 199.33 53.604 195.703 48.1379C193.964 45.5168 191.548 42.7357 190.789 39.6093C189.975 36.2509 190.685 31.6623 190.878 28.2072C191.03 25.4976 191.288 22.7983 191.136 20.0819C190.853 15.0291 189.67 8.856 185.557 5.45355Z" fill="url(#paint0_linear_2193_392)"/>
<mask id="mask0_2193_392" style="mask-type:luminance" maskUnits="userSpaceOnUse" x="115" y="2" width="85" height="143">
<path d="M185.557 5.45453C183.097 3.41923 179.366 2.31064 176.211 2.08718C153.851 0.503011 150.588 47.2407 154.015 57.6859C157.442 68.131 155.222 71.561 137.612 77.0256C120.002 82.4901 128.45 93.0122 130.597 99.1654C132.743 105.319 136.993 110.516 124.156 116.63C111.318 122.745 115.779 126.533 115.779 126.533C115.779 126.533 139.454 150.749 138.146 142.996C136.839 135.243 139.208 123.536 160.434 122.646C169.577 122.263 183.577 117.902 186.677 108.112C187.399 105.833 187.902 102.351 187.353 99.9915C186.591 96.7186 184.442 94.1395 183.25 91.059C180.47 83.8802 187.442 78.6228 191.454 73.8246C193.549 71.3197 195.642 68.7505 197.246 65.8943C200.577 59.9646 199.33 53.605 195.703 48.1389C193.964 45.5178 191.548 42.7366 190.789 39.6103C189.975 36.2518 190.685 31.6633 190.878 28.2082C191.03 25.4986 191.288 22.7993 191.136 20.0829C190.853 15.0301 189.67 8.85698 185.557 5.45453Z" fill="white"/>
</mask>
<g mask="url(#mask0_2193_392)">
<g opacity="0.8">
<path d="M113.917 140.123C113.764 140.178 113.59 140.113 113.512 139.964C113.428 139.803 113.49 139.603 113.652 139.518C113.751 139.466 123.718 134.224 134.837 125.589C145.082 117.633 158.428 105.088 163.832 90.5047C168.345 78.3245 172.461 58.1889 175.125 35.2611C177.513 14.7015 177.89 -0.504088 176.875 -3.32694C176.813 -3.49881 176.902 -3.68815 177.074 -3.74993C177.246 -3.81172 177.436 -3.72257 177.497 -3.5507C178.685 -0.248747 177.931 16.833 175.782 35.3374C173.112 58.3155 168.983 78.5069 164.452 90.7344C158.993 105.468 145.549 118.109 135.233 126.119C124.069 134.787 114.058 140.052 113.959 140.104C113.945 140.112 113.931 140.118 113.917 140.123Z" fill="white"/>
<path d="M175.09 39.2468C174.919 39.3083 174.745 39.2606 174.682 39.0899C174.599 38.8637 166.264 16.4378 155.515 11.3746C155.35 11.2968 155.283 11.1098 155.36 10.9447C155.438 10.7794 155.637 10.7136 155.802 10.7915C166.797 15.9704 174.959 37.9258 175.302 38.8596C175.365 39.031 175.264 39.1844 175.092 39.2461C175.091 39.2464 175.091 39.2466 175.09 39.2468Z" fill="white"/>
<path d="M171.023 65.2538C170.895 65.2998 170.747 65.2636 170.656 65.1529C170.539 65.012 170.56 64.8036 170.7 64.6874C170.762 64.6371 176.899 59.6027 184.471 55.3781C194.702 49.6702 202.543 48.0768 207.776 50.6424C207.94 50.7227 208.008 50.9209 207.928 51.0848C207.847 51.2488 207.649 51.3165 207.485 51.2361C195.446 45.3339 171.363 64.9985 171.121 65.1978C171.091 65.2227 171.057 65.2413 171.023 65.2538Z" fill="white"/>
<path d="M144.304 118.413C144.271 118.425 144.235 118.432 144.197 118.432C144.015 118.435 143.864 118.29 143.862 118.107C143.86 118.011 143.69 108.389 141.676 98.2508C139.83 88.9556 136.017 77.3122 128.339 74.6293C128.166 74.569 128.076 74.3805 128.136 74.2081C128.196 74.0356 128.385 73.9446 128.557 74.005C134.959 76.2421 139.592 84.3592 142.326 98.1307C144.351 108.326 144.521 118 144.523 118.097C144.525 118.242 144.434 118.367 144.304 118.413Z" fill="white"/>
<path d="M157.968 102.869C157.834 102.917 157.679 102.874 157.59 102.754C157.482 102.607 157.513 102.4 157.659 102.292C158.724 101.505 183.84 83.0401 193.634 84.8034C193.814 84.8358 193.933 85.0077 193.901 85.1874C193.868 85.3672 193.697 85.4868 193.517 85.4543C184 83.7411 158.311 102.632 158.053 102.823C158.026 102.843 157.997 102.858 157.968 102.869Z" fill="white"/>
</g>
</g>
<path d="M205.181 74.2929C203.554 71.5454 200.418 69.2395 197.526 67.9619C177.02 58.905 158.135 101.782 157.826 112.77C157.516 123.759 154.266 126.235 135.846 125.419C117.426 124.602 121.815 137.362 121.753 143.879C121.691 150.395 123.931 156.725 109.782 158.134C95.633 159.544 98.5492 164.618 98.5492 164.618C98.5492 164.618 112.633 195.417 114.026 187.678C115.419 179.94 121.61 169.725 141.885 176.071C150.618 178.804 165.268 179.437 171.498 171.274C172.949 169.374 174.6 166.267 174.881 163.861C175.272 160.523 174.123 157.369 174.043 154.067C173.856 146.371 182.196 143.783 187.595 140.625C190.413 138.977 193.253 137.268 195.729 135.123C200.869 130.67 201.848 124.264 200.285 117.893C199.536 114.838 198.202 111.403 198.547 108.204C198.916 104.768 201.137 100.691 202.489 97.505C203.548 95.0066 204.704 92.5538 205.48 89.9462C206.924 85.0955 207.899 78.8863 205.181 74.2929Z" fill="url(#paint1_linear_2193_392)"/>
<mask id="mask1_2193_392" style="mask-type:luminance" maskUnits="userSpaceOnUse" x="98" y="66" width="109" height="123">
<path d="M205.183 74.2929C203.556 71.5454 200.42 69.2395 197.528 67.9619C177.022 58.905 158.137 101.782 157.828 112.77C157.518 123.759 154.268 126.235 135.848 125.419C117.428 124.602 121.817 137.362 121.755 143.879C121.693 150.395 123.933 156.725 109.784 158.134C95.635 159.544 98.5512 164.618 98.5512 164.618C98.5512 164.618 112.635 195.417 114.028 187.678C115.421 179.94 121.612 169.725 141.887 176.071C150.62 178.804 165.27 179.437 171.5 171.274C172.951 169.374 174.602 166.267 174.883 163.861C175.274 160.523 174.125 157.369 174.045 154.067C173.858 146.371 182.198 143.783 187.597 140.625C190.415 138.977 193.255 137.268 195.731 135.123C200.871 130.67 201.85 124.264 200.287 117.893C199.538 114.838 198.204 111.403 198.549 108.204C198.918 104.768 201.139 100.691 202.491 97.505C203.55 95.0066 204.706 92.5538 205.482 89.9462C206.926 85.0955 207.901 78.8863 205.183 74.2929Z" fill="white"/>
</mask>
<g mask="url(#mask1_2193_392)">
<g opacity="0.8">
<path d="M92.2013 176.777C92.0386 176.777 91.8969 176.657 91.8742 176.491C91.8494 176.31 91.9759 176.143 92.1568 176.118C92.2678 176.103 103.421 174.542 116.805 170.179C129.138 166.159 145.942 158.87 155.962 146.975C164.33 137.041 175.017 119.486 185.281 98.8118C194.485 80.2731 199.985 66.092 199.985 63.0923C199.985 62.9097 200.133 62.7617 200.316 62.7617C200.499 62.7617 200.647 62.9097 200.647 63.0923C200.647 66.6013 194.157 82.4205 185.873 99.1059C175.586 119.825 164.868 137.428 156.467 147.402C146.345 159.418 129.417 166.765 116.999 170.812C103.56 175.191 92.3581 176.758 92.2467 176.774C92.2314 176.776 92.2162 176.777 92.2013 176.777Z" fill="white"/>
<path d="M183.896 102.618C183.715 102.618 183.567 102.481 183.566 102.299C183.564 102.058 183.309 78.1178 174.907 69.7159C174.778 69.5869 174.778 69.3796 174.907 69.2506C175.037 69.1214 175.246 69.1226 175.375 69.2517C183.969 77.8455 184.221 101.299 184.227 102.294C184.228 102.477 184.081 102.618 183.899 102.618C183.898 102.618 183.897 102.618 183.896 102.618Z" fill="white"/>
<path d="M171.272 125.648C171.137 125.648 171.009 125.564 170.961 125.429C170.899 125.257 170.989 125.067 171.161 125.006C171.235 124.979 178.714 122.318 187.269 120.905C198.828 118.996 206.746 120.15 210.802 124.335C210.929 124.466 210.926 124.675 210.794 124.802C210.663 124.929 210.454 124.926 210.327 124.795C200.995 115.167 171.679 125.523 171.384 125.628C171.347 125.642 171.309 125.648 171.272 125.648Z" fill="white"/>
<path d="M128.143 166.629C128.108 166.629 128.072 166.624 128.036 166.611C127.863 166.552 127.771 166.364 127.83 166.192C127.862 166.101 130.957 156.989 132.493 146.767C133.9 137.395 134.252 125.149 127.935 120.026C127.793 119.911 127.771 119.703 127.886 119.561C128.001 119.419 128.21 119.397 128.352 119.512C133.619 123.784 135.232 132.99 133.145 146.874C131.6 157.154 128.487 166.314 128.456 166.406C128.409 166.543 128.281 166.629 128.143 166.629Z" fill="white"/>
<path d="M146.258 156.625C146.116 156.625 145.985 156.533 145.942 156.389C145.889 156.215 145.988 156.03 146.163 155.978C147.431 155.597 177.313 146.721 185.933 151.694C186.092 151.785 186.146 151.988 186.055 152.146C185.963 152.304 185.761 152.358 185.603 152.267C177.227 147.434 146.661 156.519 146.353 156.611C146.322 156.621 146.29 156.625 146.258 156.625Z" fill="white"/>
</g>
</g>
<path d="M87.8942 21.4536L68.3652 183.776C68.0725 186.209 69.7498 188.391 72.0997 188.624L153.441 197.554C158.424 197.864 161.152 195.318 161.459 192.73L181.963 20.1552C182.268 17.5816 179.824 15.2509 174.82 15.2509L92.7385 16.9796C90.3624 17.0194 88.1856 19.0326 87.8942 21.4536Z" fill="url(#paint2_linear_2193_392)"/>
<path d="M84.2342 21.1745L64.5979 184.308C64.3035 186.754 65.9866 188.947 68.3451 189.182L152.673 197.578C155.317 197.841 157.74 195.929 158.049 193.327L178.667 19.8602C178.975 17.2733 177.033 15.194 174.36 15.2391L89.0976 16.6777C86.7125 16.718 84.5271 18.7414 84.2342 21.1745Z" fill="url(#paint3_linear_2193_392)"/>
<path d="M85.8349 30.1727L67.6347 181.43C67.3597 183.715 68.936 185.76 71.1436 185.975L150.451 193.684C152.909 193.923 155.161 192.138 155.449 189.716L174.504 29.4731C174.79 27.0643 172.987 25.1153 170.505 25.1417L90.3832 25.9949C88.1526 26.0187 86.1086 27.8985 85.8349 30.1727Z" fill="#D8DEE8"/>
<path d="M128.363 21.0624C128.259 21.9308 128.882 22.6259 129.756 22.6149C130.63 22.6039 131.425 21.8895 131.529 21.0193C131.633 20.1491 131.007 19.454 130.132 19.4668C129.259 19.4797 128.467 20.1939 128.363 21.0624Z" fill="url(#paint4_linear_2193_392)"/>
<path d="M99.5447 131.706C115.781 101.688 140.035 92.7029 147.337 61.7659C151.284 45.0433 148.595 29.0375 144.066 15.75L174.359 15.2389C177.032 15.1938 178.974 17.2731 178.666 19.8599L158.048 193.327C157.739 195.928 155.316 197.841 152.672 197.578L86.3818 190.978C85.8916 164.081 92.3074 145.087 99.5447 131.706Z" fill="white" fill-opacity="0.94"/>
<path d="M4.17383 38.3886C4.17383 22.4382 18.0875 9.50965 34.7846 9.51172C50.988 9.51364 63.7761 21.7615 63.7761 36.8679C63.7761 51.9745 50.988 64.8748 34.7846 65.7036C18.0875 66.5576 4.17383 54.3389 4.17383 38.3886Z" fill="url(#paint5_linear_2193_392)"/>
<path d="M5.97266 37.1172C5.97266 21.1668 19.4839 8.23824 35.6979 8.24023C51.4326 8.24215 63.8507 20.49 63.8507 35.5965C63.8507 50.703 51.4326 63.6033 35.6979 64.4321C19.4839 65.2861 5.97266 53.0674 5.97266 37.1172Z" fill="url(#paint6_linear_2193_392)"/>
<g opacity="0.5">
<path d="M10.5977 36.9955C10.5977 23.5948 21.9492 12.7328 35.5715 12.7344C48.791 12.7361 59.2242 23.0261 59.2242 35.7179C59.2242 48.4098 48.791 59.2481 35.5715 59.9444C21.9491 60.6619 10.5977 50.3963 10.5977 36.9955Z" fill="#485D6A"/>
</g>
<path opacity="0.5" d="M34.6343 14.793C47.8539 14.7948 58.287 25.0847 58.287 37.7764C58.287 40.7946 57.6911 43.7049 56.6141 46.4018C58.2821 43.1544 59.2248 39.5204 59.2248 35.7172C59.2248 23.0254 48.7917 12.7352 35.5722 12.7334C25.0658 12.7323 15.9161 19.1959 12.2773 28.2996C16.3983 20.2962 24.939 14.7919 34.6343 14.793Z" fill="white"/>
<path d="M24.2773 33.7151V45.4111C24.2773 48.7928 27.1224 51.46 30.6209 51.3687L39.296 51.1424C42.7526 51.0522 45.5459 48.2668 45.5459 44.9206V33.3477L24.2773 33.7151ZM32.2668 45.8067L33.8791 40.9214C33.1886 40.565 32.7205 39.8629 32.7205 39.0449C32.7205 37.8442 33.7273 36.8519 34.9679 36.8285C36.2069 36.805 37.2102 37.7571 37.2102 38.9551C37.2102 39.7714 36.7441 40.4912 36.0555 40.8759L37.6617 45.6808L32.2668 45.8067Z" fill="white"/>
<path d="M43.0802 32.334C42.1599 32.3494 41.4133 31.637 41.4133 30.7429C41.4133 27.3051 38.5271 24.5453 34.9681 24.5909C31.3964 24.6367 28.4812 27.489 28.4812 30.949C28.4812 31.8488 27.7244 32.5912 26.7899 32.6067C25.8545 32.6224 25.0957 31.9043 25.0957 31.0029C25.0957 25.7372 29.5365 21.4034 34.968 21.3424C40.3703 21.2819 44.7443 25.4752 44.7443 30.6897C44.7444 31.5824 43.9997 32.3186 43.0802 32.334Z" fill="white"/>
<path d="M63.1714 99.0458C63.1714 99.0458 62.5813 96.8334 62.9993 96.268C63.4172 95.7026 65.9738 93.441 65.7279 94.1784C65.4821 94.9159 65.1134 95.4075 65.1134 95.4075C65.1134 95.4075 66.4899 96.0467 65.605 97.0054C64.72 97.9641 64.4246 98.1854 64.3757 99.0457C64.3267 99.9062 63.7613 100.201 63.1714 99.0458Z" fill="url(#paint7_linear_2193_392)"/>
<path d="M38.6141 194.542C38.6141 194.542 38.3015 196.455 38.3414 197.136C38.3811 197.817 45.9378 198.165 46.0141 197.655C46.0905 197.145 44.765 196.334 43.8322 196.048C42.8993 195.761 40.169 194.997 40.169 194.997L38.6141 194.542Z" fill="#2E3E48"/>
<path d="M40.4471 192.634L40.2061 195.013C40.2061 195.013 39.3283 195.593 38.5549 195.145L38.168 192.556L40.4471 192.634Z" fill="url(#paint8_linear_2193_392)"/>
<path d="M25.1299 197.643C25.1299 197.643 24.8172 199.557 24.857 200.238C24.8968 200.919 32.4535 201.267 32.5298 200.757C32.6062 200.247 31.2807 199.435 30.3479 199.149C29.4151 198.863 26.6847 198.099 26.6847 198.099L25.1299 197.643Z" fill="#2E3E48"/>
<path d="M26.9648 195.736L26.7237 198.115C26.7237 198.115 25.846 198.696 25.0725 198.248L24.6855 195.658L26.9648 195.736Z" fill="url(#paint9_linear_2193_392)"/>
<path d="M39.0772 130.523C39.9506 132.294 40.8242 134.065 41.6977 135.836C42.4001 145.942 42.7492 156.931 42.525 168.683C42.3582 177.426 41.8908 185.709 41.2197 193.484C40.0355 193.429 38.8511 193.375 37.6668 193.321C35.9542 189.922 33.9326 184.773 33.7466 178.416C33.5525 171.786 35.5627 170.906 35.4352 164.557C35.2699 156.329 31.8196 154.134 29.9814 144.237C29.2785 140.452 28.8051 135.508 29.3677 129.511C32.6043 129.848 35.8406 130.186 39.0772 130.523Z" fill="url(#paint10_linear_2193_392)"/>
<path opacity="0.3" d="M29.3677 129.51C31.1156 129.692 32.8635 129.874 34.6114 130.057C37.7578 135.532 38.6363 141.231 38.0841 143.752C37.303 147.319 35.2367 148.461 35.3503 152.042C35.4626 155.585 37.5501 156.504 38.8744 160.68C39.791 163.571 39.5492 166.23 39.0276 171.428C37.9773 181.901 35.4485 185.103 37.5668 188.537C38.1687 189.512 39.2531 190.674 41.3778 191.561C41.3258 192.203 41.2746 192.847 41.2197 193.483C40.0355 193.429 38.8511 193.374 37.6668 193.32C35.9542 189.921 33.9327 184.772 33.7466 178.415C33.5525 171.785 35.5626 170.905 35.4352 164.556C35.2699 156.328 31.8196 154.133 29.9814 144.236C29.2784 140.451 28.8051 135.508 29.3677 129.51Z" fill="url(#paint11_linear_2193_392)"/>
<path d="M34.3776 133.711C32.738 142.652 31.2897 152.221 30.1596 162.37C28.7953 174.623 28.0672 186.175 27.7808 196.9C26.481 196.937 25.1811 196.974 23.8812 197.011C18.759 186.878 18.4461 180.007 19.1846 175.534C19.4693 173.811 20.2422 170.431 20.4186 165.38C20.5416 161.859 20.317 159.18 20.0364 155.959C19.4213 148.896 18.6747 147.355 18.5675 141.952C18.4667 136.883 18.4459 134.317 19.8931 132.82C23.706 128.875 33.6251 133.362 34.3776 133.711Z" fill="url(#paint12_linear_2193_392)"/>
<path d="M62.4896 98.7054C63.3541 98.6451 64.2185 98.5848 65.083 98.5245C67.1223 106.765 65.6596 114.76 61.0567 117.7C53.8654 122.293 40.5007 113.639 37.6045 104.216C36.3332 100.08 36.6227 94.111 39.1634 92.9512C39.8686 92.6292 40.9629 92.5793 43.3339 93.9104C50.4145 97.8858 50.6007 105.399 54.2003 106.036C55.8008 106.319 58.3853 105.298 62.4896 98.7054Z" fill="url(#paint13_linear_2193_392)"/>
<path d="M42.6918 137.648C43.9373 135.582 42.373 133.589 42.0169 129.673C41.6134 125.236 43.3227 124.497 45.0133 117.143C46.1375 112.252 47.2168 107.557 45.9286 102.061C45.3112 99.4271 44.2641 94.9596 40.5668 92.8017C38.6587 91.6881 36.0536 91.7995 30.9212 92.068C24.5744 92.3999 21.4011 92.5658 19.0344 93.812C18.688 93.9946 11.4881 97.9108 10.9925 104.294C10.488 110.791 17.5638 111.665 18.5074 120.329C18.9311 124.219 18.1759 130.201 17.6862 134.081C17.216 137.806 16.8923 138.76 17.6275 139.888C19.3995 142.607 24.8245 141.832 35.6745 140.283C39.9307 139.675 41.7625 139.19 42.6918 137.648Z" fill="url(#paint14_linear_2193_392)"/>
<path d="M26.1834 118.936C25.7246 120.624 24.0746 121.886 22.9259 125.993C22.678 126.88 20.9117 133.195 23.2028 134.75C24.5262 135.648 25.7141 133.947 28.9259 133.725C34.4913 133.34 37.1426 138.017 40.7781 136.74C41.4089 136.518 42.2416 136.045 43.0731 134.96C43.2386 135.938 43.2102 136.788 42.6917 137.648C41.7623 139.19 39.9305 139.675 35.6745 140.283C24.8245 141.832 19.3995 142.607 17.6276 139.888C16.8923 138.76 17.2159 137.806 17.6862 134.081C18.1759 130.201 18.9311 124.219 18.5074 120.329C17.5637 111.665 10.488 110.792 10.9925 104.295C11.1274 102.558 11.7663 101.011 12.6207 99.6649C21.5966 103.297 27.6255 113.629 26.1834 118.936Z" fill="url(#paint15_linear_2193_392)"/>
<path d="M14.8457 131.716L16.6415 132.863C16.964 132.49 17.7105 131.739 18.8761 131.483C20.1893 131.194 21.6968 131.608 21.7319 132.027C21.76 132.363 20.842 132.702 20.7002 132.754C19.5544 133.177 18.7042 132.826 18.2409 133.286C18.0771 133.449 17.8729 133.752 17.4034 134.033C17.2801 134.107 17.1509 134.172 17.0828 134.198C16.3181 134.496 15.0062 133.164 14.8934 133.048L14.8457 131.716Z" fill="url(#paint16_linear_2193_392)"/>
<path d="M20.1517 108.163C21.4508 105.051 22.3509 100.288 20.299 93.2129C6.77857 98.5404 -0.116864 111.17 2.57552 121.182C4.79494 129.435 12.8698 133.455 14.6711 134.301C15.0901 133.347 15.5094 132.393 15.9285 131.439C13.841 129.115 11.4888 125.678 11.8215 121.756C12.2826 116.318 17.5216 114.462 20.1517 108.163Z" fill="url(#paint17_linear_2193_392)"/>
<path d="M30.5891 85.6678C30.5891 85.6678 30.4823 88.033 29.7481 89.8042C29.0847 91.405 25.595 92.4113 24.8877 92.7686C24.1802 93.1259 26.2129 94.1704 28.2542 94.3756C30.2954 94.5809 36.1247 94.1173 37.1756 93.3435C38.2264 92.5697 36.3312 92.6279 34.8742 92.093C33.4172 91.5582 32.5748 88.7088 32.832 87.4155C33.0891 86.122 30.5891 85.6678 30.5891 85.6678Z" fill="url(#paint18_linear_2193_392)"/>
<path d="M33.817 84.8102C34.8762 83.7695 35.024 83.648 35.1394 83.2883C35.6023 81.8445 34.4825 79.8674 33.0138 79.3806C32.9374 79.3554 31.9524 79.0401 31.5764 79.4674C31.2571 79.8303 31.7269 80.3315 31.5035 81.0309C31.2943 81.6857 30.7267 81.7347 29.6747 82.5934C28.8081 83.3005 28.2696 83.7401 28.1453 84.3585C27.8891 85.6334 29.4324 87.481 30.7987 87.4308C31.29 87.4127 31.4236 87.1618 33.817 84.8102Z" fill="#00619E"/>
<path d="M30.9314 87.6274C30.9314 87.6274 32.0572 88.9022 33.7723 88.4807C35.3079 88.1034 34.9161 84.579 33.7923 84.016C33.4175 83.8282 32.7363 83.8437 32.224 84.0906C31.9213 84.2365 31.8372 84.388 31.3381 84.6167C30.8779 84.8275 30.7319 84.7983 30.6081 84.9469C30.4531 85.1325 30.3865 85.5321 30.8719 86.4967C30.5221 86.2492 30.1459 86.1974 29.915 86.3611C29.8781 86.3873 29.7843 86.4788 29.7439 86.5994C29.5975 87.0361 30.0512 87.4796 30.9314 87.6274Z" fill="url(#paint19_linear_2193_392)"/>
<path d="M159.349 39.9053L159.746 42.0444H159.745L151.587 42.0636L80.7873 42.2315C78.9662 42.2358 77.2908 43.7412 77.0413 45.5943L60.1403 158.55C59.8887 160.419 62.7989 163.273 64.6095 163.413L96.0196 165.827V165.789L143.004 169.393C143.004 169.393 143.005 169.393 143.006 169.393L143.12 169.441C145.126 169.595 146.967 168.14 147.227 166.165C147.227 166.164 147.227 166.173 147.227 166.173L163.055 45.5735C163.312 43.6166 161.367 39.8998 159.349 39.9053Z" fill="url(#paint20_linear_2193_392)"/>
<path d="M145.626 163.814C145.367 165.789 143.527 167.266 141.521 167.112L62.9297 161.077C61.1202 160.938 59.8604 159.31 60.1121 157.44L75.4761 43.2839C75.7255 41.4312 77.4 39.9254 79.2202 39.9205L158.255 39.7031C160.271 39.6976 161.702 41.2789 161.445 43.2353L145.626 163.814Z" fill="url(#paint21_linear_2193_392)"/>
<path d="M146.669 101.034C146.54 102.013 145.627 102.742 144.628 102.706L75.4591 100.182C74.546 100.148 73.9039 99.3964 74.0293 98.4624L75.3892 88.3825C75.5146 87.4491 76.348 86.8171 77.2618 86.8425L146.492 88.7653C147.491 88.7931 148.199 89.4989 148.07 90.4765L146.669 101.034Z" fill="white"/>
<path d="M143.992 121.515C143.863 122.495 142.948 123.331 141.951 123.282L72.8339 119.867C71.9216 119.822 71.2866 118.949 71.4124 118.014L72.783 107.739C72.9086 106.805 73.7497 106.003 74.6626 106.04L143.822 108.83C144.82 108.87 145.526 109.773 145.397 110.752L143.992 121.515Z" fill="white"/>
<path opacity="0.1" d="M148.077 90.4357C147.913 90.3829 147.737 90.3538 147.549 90.3486L78.3179 88.4272C77.4046 88.4008 76.5706 89.0342 76.4465 89.9658L75.0847 100.046C75.082 100.072 75.0794 100.096 75.0767 100.122C74.3747 99.9243 73.9234 99.2592 74.029 98.462L75.3908 88.3822C75.5149 87.4505 76.3489 86.8171 77.2622 86.8436L146.493 88.765C147.475 88.7939 148.18 89.4775 148.077 90.4357Z" fill="url(#paint22_linear_2193_392)"/>
<path opacity="0.1" d="M145.411 110.526C145.244 110.46 145.065 110.421 144.875 110.413L75.7176 107.623C74.8044 107.586 73.9624 108.389 73.8383 109.323L72.4657 119.598C72.4578 119.664 72.4526 119.727 72.4526 119.793C71.7505 119.566 71.3044 118.811 71.4099 118.014L72.7825 107.739C72.9066 106.805 73.7485 106.003 74.6618 106.039L143.819 108.829C144.743 108.869 145.413 109.64 145.411 110.526Z" fill="url(#paint23_linear_2193_392)"/>
<path d="M125.608 138.115C125.812 136.569 124.719 135.144 123.165 135.055L87.3857 133C85.9042 132.915 84.5354 134.163 84.334 135.669L82.8573 146.798C82.6557 148.305 83.6838 149.748 85.1645 149.85L120.926 152.296C122.479 152.402 123.909 151.091 124.114 149.543L125.608 138.115Z" fill="url(#paint24_linear_2193_392)"/>
<path d="M128.312 63.1353C127.841 66.6931 126.013 69.9043 123.415 72.2659C120.615 74.813 116.926 76.3628 113.091 76.2889C109.274 76.2154 106.061 74.5476 103.998 71.9437C102.096 69.5437 101.164 66.3453 101.631 62.8473C102.602 55.5707 109.288 49.6879 116.625 49.7051C124.03 49.7227 129.292 55.7343 128.312 63.1353Z" fill="url(#paint25_linear_2193_392)"/>
<path d="M121.18 59.0925C120.757 62.28 117.815 64.8337 114.621 64.7955C111.44 64.7576 109.212 62.1612 109.633 58.9968C110.054 55.8333 112.967 53.2812 116.15 53.296C119.346 53.3108 121.603 55.9056 121.18 59.0925Z" fill="white"/>
<path d="M123.417 72.2668C120.616 74.814 116.928 76.3637 113.092 76.2898C109.275 76.2163 106.063 74.5486 104 71.9447C106.361 68.655 110.255 66.4676 114.391 66.5215C118.548 66.5758 121.9 68.8798 123.417 72.2668Z" fill="white"/>
<path opacity="0.4" d="M161.444 43.235L145.625 163.814C145.366 165.788 143.408 167.256 141.403 167.103L94.2009 163.478C91.9584 161.182 90.1117 158.427 88.7942 155.121C88.1472 153.5 87.6733 151.751 87.3586 149.911C86.4824 144.82 86.8218 139.033 88.0999 133.351C89.0827 128.978 90.6231 124.66 92.5958 120.765C94.173 117.65 96.0284 114.803 98.1002 112.41C99.592 110.687 101.205 109.013 102.907 107.372C104.959 105.392 107.14 103.458 109.39 101.543C114.632 97.0761 120.246 92.709 125.443 88.0972C137.436 77.4586 147.164 65.5718 144.824 48.6107C144.749 48.0767 144.018 43.9854 143.084 39.7445L158.137 39.7031C160.152 39.6976 161.701 41.2793 161.444 43.235Z" fill="#AFAFAF"/>
</g>
<defs>
<filter id="filter0_d_2193_392" x="0" y="0.046875" width="212.903" height="206.953" filterUnits="userSpaceOnUse" color-interpolation-filters="sRGB">
<feFlood flood-opacity="0" result="BackgroundImageFix"/>
<feColorMatrix in="SourceAlpha" type="matrix" values="0 0 0 0 0 0 0 0 0 0 0 0 0 0 0 0 0 0 127 0" result="hardAlpha"/>
<feOffset dx="2" dy="2"/>
<feGaussianBlur stdDeviation="2"/>
<feComposite in2="hardAlpha" operator="out"/>
<feColorMatrix type="matrix" values="0 0 0 0 0 0 0 0 0 0 0 0 0 0 0 0 0 0 0.15 0"/>
<feBlend mode="normal" in2="BackgroundImageFix" result="effect1_dropShadow_2193_392"/>
<feBlend mode="normal" in="SourceGraphic" in2="effect1_dropShadow_2193_392" result="shape"/>
</filter>
<linearGradient id="paint0_linear_2193_392" x1="139.749" y1="142.749" x2="195.738" y2="-8.46482" gradientUnits="userSpaceOnUse">
<stop offset="0.0036" stop-color="#8A94FF"/>
<stop offset="1" stop-color="#648DA8"/>
</linearGradient>
<linearGradient id="paint1_linear_2193_392" x1="98.3008" y1="127.82" x2="206.901" y2="127.82" gradientUnits="userSpaceOnUse">
<stop stop-color="#C7DDEA"/>
<stop offset="1" stop-color="#648DA8"/>
</linearGradient>
<linearGradient id="paint2_linear_2193_392" x1="126.171" y1="102.217" x2="158.227" y2="105.714" gradientUnits="userSpaceOnUse">
<stop stop-color="#444B8C"/>
<stop offset="0.9964" stop-color="#26264F"/>
</linearGradient>
<linearGradient id="paint3_linear_2193_392" x1="97.9272" y1="21.4142" x2="177.192" y2="291.266" gradientUnits="userSpaceOnUse">
<stop stop-color="#00436D"/>
<stop offset="0.9964" stop-color="#26264F"/>
</linearGradient>
<linearGradient id="paint4_linear_2193_392" x1="127.629" y1="14.7674" x2="220.788" y2="267.071" gradientUnits="userSpaceOnUse">
<stop stop-color="#FFC444"/>
<stop offset="0.9964" stop-color="#F36F56"/>
</linearGradient>
<linearGradient id="paint5_linear_2193_392" x1="-686.264" y1="716.768" x2="-622.544" y2="656.681" gradientUnits="userSpaceOnUse">
<stop stop-color="#311944"/>
<stop offset="1" stop-color="#00436D"/>
</linearGradient>
<linearGradient id="paint6_linear_2193_392" x1="15.5452" y1="53.9118" x2="66.6067" y2="7.57491" gradientUnits="userSpaceOnUse">
<stop stop-color="#C7DDEA"/>
<stop offset="1" stop-color="#7F95B0"/>
</linearGradient>
<linearGradient id="paint7_linear_2193_392" x1="67.2781" y1="94.203" x2="57.1596" y2="104.502" gradientUnits="userSpaceOnUse">
<stop stop-color="#FFC444"/>
<stop offset="0.9964" stop-color="#F36F56"/>
</linearGradient>
<linearGradient id="paint8_linear_2193_392" x1="39.9324" y1="199.376" x2="38.8444" y2="187.569" gradientUnits="userSpaceOnUse">
<stop stop-color="#FFC444"/>
<stop offset="0.9964" stop-color="#F36F56"/>
</linearGradient>
<linearGradient id="paint9_linear_2193_392" x1="26.2801" y1="200.635" x2="25.1921" y2="188.828" gradientUnits="userSpaceOnUse">
<stop stop-color="#FFC444"/>
<stop offset="0.9964" stop-color="#F36F56"/>
</linearGradient>
<linearGradient id="paint10_linear_2193_392" x1="39.5208" y1="139.886" x2="31.1458" y2="182.703" gradientUnits="userSpaceOnUse">
<stop stop-color="#1E262B"/>
<stop offset="1" stop-color="#00436D"/>
</linearGradient>
<linearGradient id="paint11_linear_2193_392" x1="43.7003" y1="160.822" x2="31.1179" y2="161.831" gradientUnits="userSpaceOnUse">
<stop stop-color="#1E262B"/>
<stop offset="1" stop-color="#00436D"/>
</linearGradient>
<linearGradient id="paint12_linear_2193_392" x1="36.7405" y1="163.19" x2="17.6392" y2="164.721" gradientUnits="userSpaceOnUse">
<stop stop-color="#1E262B"/>
<stop offset="1" stop-color="#00436D"/>
</linearGradient>
<linearGradient id="paint13_linear_2193_392" x1="51.8266" y1="100.145" x2="37.6947" y2="190.903" gradientUnits="userSpaceOnUse">
<stop stop-color="#186B9F"/>
<stop offset="0.9964" stop-color="#1E262B"/>
</linearGradient>
<linearGradient id="paint14_linear_2193_392" x1="21.7715" y1="199.765" x2="14.9363" y2="291.362" gradientUnits="userSpaceOnUse">
<stop stop-color="#186B9F"/>
<stop offset="0.9964" stop-color="#1E262B"/>
</linearGradient>
<linearGradient id="paint15_linear_2193_392" x1="-1.46678" y1="168.534" x2="36.2572" y2="103.915" gradientUnits="userSpaceOnUse">
<stop stop-color="#186B9F"/>
<stop offset="0.9964" stop-color="#1E262B"/>
</linearGradient>
<linearGradient id="paint16_linear_2193_392" x1="11.9053" y1="123.855" x2="19.8615" y2="134.603" gradientUnits="userSpaceOnUse">
<stop stop-color="#FFC444"/>
<stop offset="0.9964" stop-color="#F36F56"/>
</linearGradient>
<linearGradient id="paint17_linear_2193_392" x1="5.07154" y1="198.52" x2="-1.76357" y2="290.117" gradientUnits="userSpaceOnUse">
<stop stop-color="#186B9F"/>
<stop offset="0.9964" stop-color="#1E262B"/>
</linearGradient>
<linearGradient id="paint18_linear_2193_392" x1="34.5002" y1="97.0733" x2="26.8408" y2="87.5434" gradientUnits="userSpaceOnUse">
<stop stop-color="#FFC444"/>
<stop offset="0.9964" stop-color="#F36F56"/>
</linearGradient>
<linearGradient id="paint19_linear_2193_392" x1="39.0276" y1="88.9122" x2="27.6088" y2="83.8296" gradientUnits="userSpaceOnUse">
<stop stop-color="#FFC444"/>
<stop offset="0.9964" stop-color="#F36F56"/>
</linearGradient>
<linearGradient id="paint20_linear_2193_392" x1="60.125" y1="104.679" x2="163.078" y2="104.679" gradientUnits="userSpaceOnUse">
<stop stop-color="#1E262B"/>
<stop offset="1" stop-color="#00436D"/>
</linearGradient>
<linearGradient id="paint21_linear_2193_392" x1="122.717" y1="307.168" x2="110.442" y2="94.5307" gradientUnits="userSpaceOnUse">
<stop offset="0.0036" stop-color="#648DA8"/>
<stop offset="1" stop-color="#485D6A"/>
</linearGradient>
<linearGradient id="paint22_linear_2193_392" x1="74.0137" y1="93.4824" x2="148.087" y2="93.4824" gradientUnits="userSpaceOnUse">
<stop offset="0.0036" stop-color="#F36F56"/>
<stop offset="1" stop-color="#FFC444"/>
</linearGradient>
<linearGradient id="paint23_linear_2193_392" x1="71.3945" y1="112.916" x2="145.411" y2="112.916" gradientUnits="userSpaceOnUse">
<stop offset="0.0036" stop-color="#F36F56"/>
<stop offset="1" stop-color="#FFC444"/>
</linearGradient>
<linearGradient id="paint24_linear_2193_392" x1="107.774" y1="120.091" x2="91.2284" y2="225.016" gradientUnits="userSpaceOnUse">
<stop offset="0.0036" stop-color="#5C5C5B"/>
<stop offset="1" stop-color="#1B322B"/>
</linearGradient>
<linearGradient id="paint25_linear_2193_392" x1="113.219" y1="10.845" x2="116.753" y2="116.069" gradientUnits="userSpaceOnUse">
<stop offset="0.0036" stop-color="#737E7F"/>
<stop offset="1" stop-color="#1F2A2E"/>
</linearGradient>
</defs>
</svg>
